Genre:Action | Horror | Sci-Fi | Thriller
Language:English
IMDb:http://www.imdb.com/title/tt0464154/
Source:BluRay.x264-METiS
Subtitles:Romana


Format : Matroska
File size : 1.78 GiB
Duration : 1h 28mn
Overall bit rate : 2 876 Kbps


Video
Format settings, CABAC : Yes
Format settings, ReFrames : 4 frames
Format settings, GOP : M=1, N=16
Codec ID : V_MPEG4/ISO/AVC
Duration : 1h 28mn
Bit rate : 2 500 Kbps
Width : 1 280 pixels
Height : 536 pixels
Display aspect ratio : 2.35:1
Frame rate mode : Variable
Frame rate : 23.976 fps
Color space : YUV
Chroma subsampling : 4:2:0
Bit depth : 8 bits
Scan type : Progressive
Bits/(Pixel*Frame) : 0.152
Stream size : 1.50 GiB (85%)
Writing library : x264


Audio
ID : 2
Format : AC-3
Format/Info : Audio Coding 3
Mode extension : CM (complete main)
Codec ID : A_AC3
Duration : 1h 28mn
Bit rate mode : Constant
Bit rate : 384 Kbps
Channel(s) : 6 channels
Channel positions : Front: L C R, Side: L R, LFE
Sampling rate : 48.0 KHz
Bit depth : 16 bits
Video delay : -1mn 5s
Stream size : 243 MiB (13%)
Language : English



Plot:
After a sudden underwater tremor sets free scores of the prehistoric man-eating fish, an unlikely group of strangers must band together to stop themselves from becoming fish food for the area's new razor-toothed residents



================================== 
http://thepiratebay.org/user/hiest
==================================